
<?xml version="1.0" encoding="UTF-8" standalone="no"?>
<!-- Created with Inkscape (http://www.inkscape.org/) -->
<svg
   xmlns:dc="http://purl.org/dc/elements/1.1/"
   xmlns:cc="http://creativecommons.org/ns#"
   xmlns:rdf="http://www.w3.org/1999/02/22-rdf-syntax-ns#"
   xmlns:svg="http://www.w3.org/2000/svg"
   xmlns="http://www.w3.org/2000/svg"
   xmlns:sodipodi="http://sodipodi.sourceforge.net/DTD/sodipodi-0.dtd"
   xmlns:inkscape="http://www.inkscape.org/namespaces/inkscape"
   version="1.0"
   width="779.52753"
   height="779.52753"
   id="svg2453"
   sodipodi:version="0.32"
   inkscape:version="0.45+0.46pre3+devel"
   sodipodi:docname="General_Electric_Logo_001.svg"
   inkscape:output_extension="org.inkscape.output.svg.inkscape">
  <metadata
     id="metadata2453">
    <rdf:RDF>
      <cc:Work
         rdf:about="">
        <dc:format>image/svg+xml</dc:format>
        <dc:type
           rdf:resource="http://purl.org/dc/dcmitype/StillImage" />
      </cc:Work>
    </rdf:RDF>
  </metadata>
  <sodipodi:namedview
     inkscape:window-height="480"
     inkscape:window-width="640"
     inkscape:pageshadow="2"
     inkscape:pageopacity="0.0"
     guidetolerance="10.0"
     gridtolerance="10.0"
     objecttolerance="10.0"
     borderopacity="1.0"
     bordercolor="#666666"
     pagecolor="#ffffff"
     id="base"
     showgrid="false"
     inkscape:zoom="5.054149"
     inkscape:cx="61.674715"
     inkscape:cy="380.69191"
     inkscape:current-layer="svg2453" />
  <defs
     id="defs2455">
    <inkscape:perspective
       sodipodi:type="inkscape:persp3d"
       inkscape:vp_x="0 : 389.76376 : 1"
       inkscape:vp_y="0 : 1000 : 0"
       inkscape:vp_z="779.52753 : 389.76376 : 1"
       inkscape:persp3d-origin="389.76376 : 259.84251 : 1"
       id="perspective2455" />
    <clipPath
       id="clp9">
      <path
         d="M 0,183.78 L 0,0 L 221.69,0 L 221.69,183.78"
         id="path2797" />
    </clipPath>
    <clipPath
       id="clp8">
      <path
         d="M 0,183.78 L 0,0 L 221.69,0 L 221.69,183.78"
         id="path2787" />
    </clipPath>
    <clipPath
       id="clipPath3264">
      <path
         d="M 0,183.78 L 0,0 L 221.69,0 L 221.69,183.78"
         id="path3266" />
    </clipPath>
    <clipPath
       id="clipPath3256">
      <path
         d="M 0,183.78 L 0,0 L 221.69,0 L 221.69,183.78"
         id="path3258" />
    </clipPath>
  </defs>
  <rect
     style="opacity:1;fill:#ffffff;fill-opacity:1;fill-rule:nonzero;stroke:none;stroke-width:1;stroke-miterlimit:4;stroke-dasharray:none;stroke-dashoffset:0;stroke-opacity:1"
     id="rect3228"
     width="708.9566"
     height="708.79999"
     x="35.129204"
     y="35.202625"
     rx="0.89949781"
     ry="1.000838" />
  <path
     id="path15007"
     style="fill:#3b73b9;fill-opacity:1"
     d="M 336.3043,237.4868 C 336.3043,237.4868 338.5588,227.2647 331.1875,224.4895 C 331.1875,224.4895 282.5409,229.0944 275.6292,309.6494 C 275.6292,309.6494 337.3894,270.1486 336.3043,237.4868 z M 511.7527,262.4602 C 519.0978,250.4869 527.464,235.5814 512.6632,225.4233 C 512.6632,225.4233 477.456,220.766 475.6146,301.3065 C 475.6175,301.3065 499.439,282.3488 511.7527,262.4602 z M 221.8628,530.0296 C 221.8628,530.0296 221.4992,540.9266 224.6874,547.6318 C 227.8756,554.3136 234.6273,556.8881 240.8903,561.0566 C 240.8903,561.0566 279.7599,579.1591 314.4987,494.4414 C 314.4987,494.4414 328.3861,459.6705 327.016,427.7126 C 327.016,427.7097 223.262,478.6224 221.8628,530.0296 z M 605.7907,146.1889 C 605.7907,146.1889 549.2085,94.1156 440.006,99.9509 C 440.006,99.9509 404.3595,104.998 388.497,120.6889 C 372.1457,136.8541 344.2109,139.2249 334.0179,117.9138 C 334.0179,117.9138 311.8283,76.2662 399.3299,66.6869 L 404.4206,66.2651 L 415.9256,65.2092 L 389.5616,64.1678 C 292.4633,64.1678 205.2381,106.6648 145.5374,173.9608 C 145.5374,173.9608 93.4495,230.5692 99.2703,339.8648 C 99.2703,339.8648 104.3203,375.3862 120.0549,391.2459 C 136.2142,407.6321 138.5704,435.6017 117.2564,445.7773 C 117.2564,445.7773 75.6408,467.9931 66.047,380.4449 L 65.602,375.3891 L 64.5751,363.9103 L 63.4842,390.2015 C 63.4842,487.3551 105.9318,574.5222 173.35,634.2316 C 173.35,634.2316 229.9526,686.3428 339.1784,680.4958 C 339.1784,680.4958 374.7608,675.4633 390.6641,659.8043 C 407.0212,643.5432 434.9793,641.2189 445.1287,662.5213 C 445.1287,662.5213 467.3561,704.1951 379.8806,713.7249 L 374.7637,714.2019 L 363.2733,715.2026 L 389.5645,716.3284 C 486.6832,716.3284 573.94625,673.843 633.62948,606.4684 C 633.62948,606.4684 685.69121,549.9037 679.90237,440.6517 C 679.90237,440.6517 674.87278,405.046 659.12946,389.2038 C 642.97016,372.8263 640.56736,344.8362 661.91624,334.713 C 661.91624,334.713 703.5697,312.4624 713.07619,399.9786 L 713.52126,405.046 L 714.54523,416.5858 L 715.6739,390.2074 C 715.67099,293.1149 673.20012,205.9303 605.7907,146.1889 z M 543.1811,586.5159 C 529.3781,592.4996 513.5562,597.6514 487.6344,597.6514 C 487.6344,597.6514 376.544,581.8964 382.551,473.5841 C 382.551,473.5841 387.6446,397.6543 457.0991,356.9055 C 457.0991,356.9055 452.5174,353.1704 452.0025,345.7758 L 356.1813,404.0918 C 356.1813,404.0918 362.4879,512.2704 307.6627,569.3472 C 299.8521,577.5126 289.5776,583.5895 280.2573,590.2452 C 273.7354,594.8937 265.5583,596.1155 259.8742,597.6543 C 252.4651,599.5509 247.3657,598.5357 236.7479,598.5357 C 236.7479,598.5357 209.8691,599.4782 195.045,566.5837 C 195.045,566.5837 169.1291,513.8296 221.8657,459.6734 C 221.8657,459.6734 252.468,421.7085 329.7912,395.8129 L 331.1904,373.5652 C 331.1904,373.5652 303.3749,393.9745 285.3538,390.2074 C 274.3812,387.9965 249.2332,386.5188 242.3157,344.8391 C 242.3157,344.8391 199.1903,330.5038 196.4268,286.0839 C 196.4268,286.0839 195.9585,259.7432 209.3164,247.8805 C 230.5751,229.1235 220.2134,259.6792 220.2134,259.6792 C 219.3785,278.6369 221.3915,310.7926 243.6742,316.6687 C 243.6742,316.6687 242.3157,272.6299 265.8725,236.1079 C 265.8725,236.1079 307.5347,174.9353 354.7559,197.2034 C 354.7559,197.2034 399.2398,230.4791 336.7145,299.9742 C 336.7145,299.9742 309.8298,336.4991 272.8249,344.397 C 272.8249,344.397 283.8848,390.2103 336.7145,336.0657 C 336.7145,336.0657 350.7241,272.1849 389.5616,287.4686 C 389.5616,287.4686 420.0534,308.2938 354.7559,352.6963 L 353.4003,376.352 L 442.2808,321.7274 C 442.2808,321.7274 437.6352,274.5324 450.6266,234.6796 C 450.6266,234.6796 472.854,183.2724 522.862,191.6502 C 522.862,191.6502 583.05135,219.8701 525.6168,288.827 C 525.6168,288.827 493.1557,323.5833 476.5949,326.3876 C 476.5949,326.3876 479.3119,339.3092 485.8513,343.949 C 485.8513,343.949 557.61535,329.1424 552.00685,356.9172 C 552.00685,356.9172 554.81405,394.3992 477.0575,380.503 C 477.0575,380.503 421.473,426.3541 428.3934,476.3331 C 428.3934,476.3331 422.8082,544.4261 490.875,554.1071 C 490.875,554.1071 560.34975,558.2902 557.60955,497.1671 C 557.60955,497.1671 556.16665,445.7889 514.5424,449.9138 C 514.5424,449.9138 475.6088,462.498 506.1878,497.1671 C 506.1878,497.1671 521.0003,506.9121 507.555,522.1958 C 507.555,522.1958 492.2772,531.8884 476.7986,517.0818 C 468.9444,509.4807 460.5054,497.0158 457.6052,472.1645 C 457.6052,472.1645 453.425,409.712 528.4327,412.4348 C 528.4327,412.4348 596.00203,419.8788 597.84632,498.5721 C 597.85213,498.5604 603.22499,560.6377 543.1811,586.5159 z M 389.7885,35.4796 C 194.0705,35.4796 35.4331,194.1054 35.4331,389.8001 C 35.4331,585.4076 194.0705,744.0479 389.7885,744.0479 C 585.39885,744.0479 744.09447,585.4076 744.09447,389.8001 C 744.09447,194.1083 585.39885,35.4796 389.7885,35.4796 z M 389.5616,731.1234 C 201.2848,731.1234 48.6456,578.5046 48.6456,390.2015 C 48.6456,201.9596 201.2877,49.3059 389.5616,49.3059 C 577.86465,49.3059 730.49507,201.9625 730.49507,390.2015 C 730.49507,578.5046 577.86465,731.1234 389.5616,731.1234 z" />
</svg>
