<?xml version="1.0" encoding="utf-8"?>
<!-- Generator: Adobe Illustrator 19.1.0, SVG Export Plug-In . SVG Version: 6.00 Build 0)  -->
<!DOCTYPE svg PUBLIC "-//W3C//DTD SVG 1.1//EN" "http://www.w3.org/Graphics/SVG/1.1/DTD/svg11.dtd">
<svg version="1.1" id="Layer_1" xmlns="http://www.w3.org/2000/svg" xmlns:xlink="http://www.w3.org/1999/xlink" x="0px" y="0px"
	 viewBox="0 0 560.6 130" style="enable-background:new 0 0 560.6 130;" xml:space="preserve">
<style type="text/css">
	.st0{fill:#4E7BBD;}
	.st1{fill:#D33B36;}
	.st2{fill:#605FA2;}
	.st3{fill:#39A891;}
	.st4{fill:#333333;}
</style>
<path class="st0" d="M101,58c-16,0-29-13-29-29S85,0,101,0s29,13,29,29S117,58,101,58z M101,14c-8.3,0-15,6.7-15,15s6.7,15,15,15
	s15-6.7,15-15S109.3,14,101,14z"/>
<path class="st1" d="M29,58C13,58,0,45,0,29S13,0,29,0s29,13,29,29S45,58,29,58z M29,14c-8.3,0-15,6.7-15,15s6.7,15,15,15
	s15-6.7,15-15S37.3,14,29,14z"/>
<path class="st2" d="M101,130c-16,0-29-13-29-29s13-29,29-29s29,13,29,29S117,130,101,130z M101,86c-8.3,0-15,6.7-15,15
	s6.7,15,15,15s15-6.7,15-15S109.3,86,101,86z"/>
<rect x="-1.6" y="91" transform="matrix(0.7071 0.7071 -0.7071 0.7071 79.4969 8.0755)" class="st3" width="63.1" height="18"/>
<g>
	<path class="st4" d="M178.6,107V23h34.1c8.6,0,15.6,2.4,20.9,7.3c5.3,4.8,8,11.3,8,19.5c0,6.1-1.6,11.2-4.7,15.5
		c-3.2,4.2-7.5,7.2-13,9l17.9,32.8h-17.5l-16.9-31.2h-12.5V107H178.6z M194.8,61.8h16.6c9.2,0,13.8-4,13.8-12
		c0-8.1-4.6-12.1-13.8-12.1h-16.6V61.8z"/>
	<path class="st4" d="M252.1,73.6v-12h27.5v12H252.1z"/>
	<path class="st4" d="M296,107V23h35.6c7.4,0,13.4,2.2,17.9,6.5c4.5,4.4,6.8,9.7,6.8,16c0,7-3,12.4-9.1,16v0.1
		c3.6,1.5,6.5,3.9,8.8,7.3c2.3,3.3,3.4,7.3,3.4,11.9c0,8-2.4,14.4-7.3,19.2c-4.9,4.6-12.9,7-24.1,7H296z M312.2,56.8h17.4
		c3.3,0,5.9-0.8,7.7-2.3c1.9-1.6,2.8-3.9,2.8-6.9c0-3.2-0.9-5.6-2.8-7.2c-1.8-1.6-4.4-2.4-7.8-2.4h-17.4V56.8z M312.2,92h19.6
		c7.7,0,11.5-3.7,11.5-11.2c0-3.4-1-6.1-3.1-8c-2-1.9-4.8-2.8-8.3-2.8h-19.7V92z"/>
	<path class="st4" d="M370.7,107V43.4h14.8v6.7h0.2c1.2-2.4,3-4.3,5.3-5.8c2.4-1.4,4.9-2.2,7.7-2.2c2,0,3.9,0.4,5.8,1.2l-2.4,15.1
		c-1.8-0.6-3.4-1-4.9-1c-7.3,0-10.9,4.8-10.9,14.5V107H370.7z"/>
	<path class="st4" d="M449,107v-6.1h-0.2c-0.2,0.2-0.4,0.5-0.6,0.9c-0.2,0.4-0.8,1-1.8,1.9c-1,0.9-2,1.7-3.2,2.4
		c-1.2,0.7-2.8,1.4-4.9,1.9c-2.1,0.6-4.3,0.8-6.7,0.8c-7.7,0-13.4-1.8-17.2-5.5c-3.8-3.6-5.7-8.1-5.7-13.4c0-5.5,1.6-9.7,4.9-12.6
		c3.3-2.9,8.8-5.3,16.7-7.2c7.3-1.8,11.8-3.2,13.7-4.2c1.8-1,2.8-2.5,2.8-4.4s-0.9-3.5-2.7-4.8c-1.8-1.3-4.5-1.9-8.1-1.9
		c-4.2,0-7.3,0.9-9.1,2.8c-1.8,1.9-3.3,4.4-4.3,7.6l-13-5.4c1.5-5.4,4.5-9.7,8.9-13.1c4.4-3.4,10.2-5.1,17.3-5.1
		c7.8,0,14.1,2,19.1,6.1c5,4.1,7.4,10.4,7.4,19V107H449z M433.2,81c-4,1-6.6,2.1-7.9,3.4c-1.2,1.3-1.9,2.8-1.9,4.5
		c0,4.3,3.1,6.5,9.4,6.5c4.7,0,8.3-0.9,10.6-2.7c2.4-1.8,3.5-4,3.5-6.7V75h-0.2c-0.3,0.6-0.7,1.1-1,1.5c-0.4,0.4-1.6,1-3.7,1.8
		C440,79.1,437.1,80,433.2,81z"/>
	<path class="st4" d="M475.6,34.2V19.4h15.6v14.8H475.6z M475.6,107V43.4h15.6V107H475.6z"/>
	<path class="st4" d="M506,107V43.4h15v6.1h0.2c1.8-2.2,4.2-4.1,7.2-5.6c3-1.5,6.2-2.3,9.6-2.3c7,0,12.6,2.1,16.6,6.3
		c4,4.2,6,10,6,17.5V107H545V69.2c0-4.4-0.8-7.7-2.5-9.9c-1.7-2.2-4.6-3.3-8.6-3.3c-3.8,0-6.8,1.1-9,3.3c-2.2,2.2-3.2,5.1-3.2,8.8
		V107H506z"/>
</g>
</svg>
