<?xml version="1.0" encoding="utf-8"?>
<!-- Generator: Adobe Illustrator 19.1.0, SVG Export Plug-In . SVG Version: 6.00 Build 0)  -->
<!DOCTYPE svg PUBLIC "-//W3C//DTD SVG 1.1//EN" "http://www.w3.org/Graphics/SVG/1.1/DTD/svg11.dtd">
<svg version="1.1" id="Layer_1" xmlns="http://www.w3.org/2000/svg" xmlns:xlink="http://www.w3.org/1999/xlink" x="10px" y="10px"
	 viewBox="0 0 130 130" style="enable-background:new 0 0 130 130;" xml:space="preserve">
<style type="text/css">
	.st0{fill:#4E7BBD;}
	.st1{fill:#D33B36;}
	.st2{fill:#605FA2;}
	.st3{fill:#39A891;}
	.st4{fill:#333333;}
</style>
<path class="st0" d="M101,58c-16,0-29-13-29-29S85,0,101,0s29,13,29,29S117,58,101,58z M101,14c-8.3,0-15,6.7-15,15s6.7,15,15,15
	s15-6.7,15-15S109.3,14,101,14z"/>
<path class="st1" d="M29,58C13,58,0,45,0,29S13,0,29,0s29,13,29,29S45,58,29,58z M29,14c-8.3,0-15,6.7-15,15s6.7,15,15,15
	s15-6.7,15-15S37.3,14,29,14z"/>
<path class="st2" d="M101,130c-16,0-29-13-29-29s13-29,29-29s29,13,29,29S117,130,101,130z M101,86c-8.3,0-15,6.7-15,15
	s6.7,15,15,15s15-6.7,15-15S109.3,86,101,86z"/>
<rect x="-1.6" y="91" transform="matrix(0.7071 0.7071 -0.7071 0.7071 79.4969 8.0755)" class="st3" width="63.1" height="18"/>
</svg>
